<mxfile>
    <diagram id="DQZUTxEIwey0AbTAcF9M" name="Page-1">
        <mxGraphModel dx="994" dy="505" grid="1" gridSize="10" guides="1" tooltips="1" connect="1" arrows="1" fold="1" page="1" pageScale="1" pageWidth="850" pageHeight="1100" math="0" shadow="0">
            <root>
                <mxCell id="0"/>
                <mxCell id="1" parent="0"/>
                <mxCell id="3" value="Initiation" style="rounded=0;whiteSpace=wrap;html=1;fillColor=#dae8fc;strokeColor=#6c8ebf;gradientColor=#7ea6e0;fontColor=#000000;fontStyle=1;fontSize=15;" vertex="1" parent="1">
                    <mxGeometry x="180" y="210" width="190" height="60" as="geometry"/>
                </mxCell>
                <mxCell id="4" value="" style="rounded=0;whiteSpace=wrap;html=1;fillColor=#60a917;strokeColor=#2D7600;fontColor=#000000;fontStyle=1;fontSize=15;" vertex="1" parent="1">
                    <mxGeometry x="340" y="210" width="30" height="60" as="geometry"/>
                </mxCell>
                <mxCell id="5" value="" style="rounded=0;whiteSpace=wrap;html=1;fillColor=#60a917;strokeColor=#2D7600;fontColor=#000000;fontStyle=1;fontSize=15;" vertex="1" parent="1">
                    <mxGeometry x="340" y="280" width="30" height="60" as="geometry"/>
                </mxCell>
                <mxCell id="6" value="Extension" style="rounded=0;whiteSpace=wrap;html=1;fillColor=#dae8fc;strokeColor=#6c8ebf;gradientColor=#7ea6e0;fontColor=#000000;fontStyle=1;fontSize=15;" vertex="1" parent="1">
                    <mxGeometry x="370" y="280" width="190" height="60" as="geometry"/>
                </mxCell>
                <mxCell id="7" value="" style="rounded=0;whiteSpace=wrap;html=1;fillColor=#a20025;strokeColor=#6F0000;fontColor=#000000;fontStyle=1;fontSize=15;" vertex="1" parent="1">
                    <mxGeometry x="530" y="280" width="30" height="60" as="geometry"/>
                </mxCell>
                <mxCell id="8" value="Termination" style="rounded=0;whiteSpace=wrap;html=1;fillColor=#dae8fc;strokeColor=#6c8ebf;gradientColor=#7ea6e0;fontColor=#000000;fontStyle=1;fontSize=15;" vertex="1" parent="1">
                    <mxGeometry x="530" y="200" width="190" height="60" as="geometry"/>
                </mxCell>
                <mxCell id="9" value="" style="rounded=0;whiteSpace=wrap;html=1;fillColor=#a20025;strokeColor=#6F0000;fontColor=#000000;fontStyle=1;fontSize=15;" vertex="1" parent="1">
                    <mxGeometry x="530" y="200" width="30" height="60" as="geometry"/>
                </mxCell>
                <mxCell id="10" value="" style="rounded=0;whiteSpace=wrap;html=1;fillColor=#fa6800;strokeColor=#C73500;fontColor=#000000;fontStyle=1;fontSize=15;" vertex="1" parent="1">
                    <mxGeometry x="690" y="200" width="30" height="60" as="geometry"/>
                </mxCell>
                <mxCell id="12" value="Extension" style="rounded=0;whiteSpace=wrap;html=1;fillColor=#dae8fc;strokeColor=#6c8ebf;gradientColor=#7ea6e0;fontColor=#000000;fontStyle=1;fontSize=15;" vertex="1" parent="1">
                    <mxGeometry x="690" y="280" width="190" height="60" as="geometry"/>
                </mxCell>
                <mxCell id="13" value="" style="rounded=0;whiteSpace=wrap;html=1;fillColor=#fa6800;strokeColor=#C73500;fontColor=#000000;fontStyle=1;fontSize=15;" vertex="1" parent="1">
                    <mxGeometry x="690" y="280" width="30" height="60" as="geometry"/>
                </mxCell>
                <mxCell id="14" value="Promotor" style="rounded=0;whiteSpace=wrap;html=1;fillColor=#dae8fc;strokeColor=#6c8ebf;gradientColor=#7ea6e0;fontColor=#000000;fontStyle=1;fontSize=15;" vertex="1" parent="1">
                    <mxGeometry x="850" y="200" width="190" height="60" as="geometry"/>
                </mxCell>
                <mxCell id="15" value="" style="rounded=0;whiteSpace=wrap;html=1;fillColor=#76608a;strokeColor=#432D57;fontColor=#000000;fontStyle=1;fontSize=15;" vertex="1" parent="1">
                    <mxGeometry x="850" y="280" width="30" height="60" as="geometry"/>
                </mxCell>
                <mxCell id="16" value="" style="rounded=0;whiteSpace=wrap;html=1;fillColor=#76608a;strokeColor=#432D57;fontColor=#000000;fontStyle=1;fontSize=15;" vertex="1" parent="1">
                    <mxGeometry x="850" y="200" width="30" height="60" as="geometry"/>
                </mxCell>
                <mxCell id="17" value="Promotor" style="rounded=0;whiteSpace=wrap;html=1;fillColor=#dae8fc;strokeColor=#6c8ebf;gradientColor=#7ea6e0;fontColor=#000000;fontStyle=1;fontSize=15;" vertex="1" parent="1">
                    <mxGeometry x="20" y="290" width="190" height="60" as="geometry"/>
                </mxCell>
                <mxCell id="18" value="" style="rounded=0;whiteSpace=wrap;html=1;fillColor=#e3c800;strokeColor=#B09500;fontColor=#000000;fontStyle=1;fontSize=15;" vertex="1" parent="1">
                    <mxGeometry x="180" y="210" width="30" height="60" as="geometry"/>
                </mxCell>
                <mxCell id="19" value="" style="rounded=0;whiteSpace=wrap;html=1;fillColor=#e3c800;strokeColor=#B09500;fontColor=#000000;fontStyle=1;fontSize=15;" vertex="1" parent="1">
                    <mxGeometry x="180" y="290" width="30" height="60" as="geometry"/>
                </mxCell>
                <mxCell id="21" value="&lt;font style=&quot;font-size: 15px;&quot;&gt;&lt;span style=&quot;font-size: 15px;&quot;&gt;Plasmid backbone&lt;/span&gt;&lt;/font&gt;" style="rounded=0;whiteSpace=wrap;html=1;fillColor=#ffcd28;strokeColor=#d79b00;gradientColor=#ffa500;fontColor=#000000;fontStyle=1;fontSize=15;" vertex="1" parent="1">
                    <mxGeometry x="20" y="420" width="1020" height="60" as="geometry"/>
                </mxCell>
                <mxCell id="22" value="" style="rounded=0;whiteSpace=wrap;html=1;fillColor=#6d8764;strokeColor=#3A5431;fontColor=#000000;fontStyle=1;fontSize=15;" vertex="1" parent="1">
                    <mxGeometry x="20" y="420" width="30" height="60" as="geometry"/>
                </mxCell>
                <mxCell id="23" value="" style="rounded=0;whiteSpace=wrap;html=1;fillColor=#6d8764;strokeColor=#3A5431;fontColor=#000000;fontStyle=1;fontSize=15;" vertex="1" parent="1">
                    <mxGeometry x="20" y="290" width="30" height="60" as="geometry"/>
                </mxCell>
                <mxCell id="24" value="" style="rounded=0;whiteSpace=wrap;html=1;fillColor=#a0522d;strokeColor=#6D1F00;fontColor=#000000;fontStyle=1;fontSize=15;" vertex="1" parent="1">
                    <mxGeometry x="1010" y="200" width="30" height="60" as="geometry"/>
                </mxCell>
                <mxCell id="25" value="" style="rounded=0;whiteSpace=wrap;html=1;fillColor=#a0522d;strokeColor=#6D1F00;fontColor=#000000;fontStyle=1;fontSize=15;" vertex="1" parent="1">
                    <mxGeometry x="1010" y="420" width="30" height="60" as="geometry"/>
                </mxCell>
            </root>
        </mxGraphModel>
    </diagram>
</mxfile>